<?xml version="1.0" encoding="UTF-8"?>
<svg id="Capa_1" data-name="Capa 1" xmlns="http://www.w3.org/2000/svg" viewBox="0 0 534.09 690.7">
  <defs>
    <style>
      .cls-1 {
        fill: #ec4899;
        fill-rule: evenodd;
      }
    </style>
  </defs>
  <path class="cls-1" d="M239.95,341.7c18.21-25.56,16.18-52.49,3.55-100.92-24.98-95.78-15.03-148.28,71.08-210.44L356.61,0l10.17,50.83c10.8,54.02,28.55,87.43,74.1,151.69q1.81,2.55,3.63,5.12c65.62,92.58,89.59,148.38,89.59,249.73,0,122.95-124.29,233.33-266.67,233.33S.76,580.33.76,457.36c0-2.3,0-2.23-.39-12.38-3.01-78.55,11.51-140.04,70.29-206.42,12.42-14.03,26.53-27.51,42.42-40.41l35.07-28.47,16.87,41.9c12.46,30.96,27.07,55.3,43.56,73.16,13.97,15.13,24.34,34.15,31.37,56.95ZM120.58,282.75c-45.25,51.1-56,96.63-53.59,159.67.45,11.74.44,11.32.44,14.94,0,84.26,92.79,166.67,200,166.67s200-82.42,200-166.67-18.94-128.83-77.31-211.18q-1.81-2.55-3.63-5.11c-35.45-50-56.58-84.79-70.55-123.69-22.83,27.36-21.49,54.56-7.92,106.57,24.98,95.78,15.03,148.28-71.08,210.44l-49.1,35.44-3.68-60.44c-2.35-38.62-11.09-64.84-24.55-79.41-13.29-14.39-25.3-31.24-36.06-50.52-1,1.1-1.99,2.19-2.97,3.3Z"/>
</svg>